<svg width="93" height="19" viewBox="0 0 93 19" fill="none" xmlns="http://www.w3.org/2000/svg">
<path d="M7.04297 13.2344C5.23828 13.2344 3.77344 12.668 2.64844 11.5352C1.53125 10.3945 0.972656 8.87891 0.972656 6.98828V6.63672C0.972656 5.37109 1.21484 4.24219 1.69922 3.25C2.19141 2.25 2.87891 1.47266 3.76172 0.917969C4.64453 0.363281 5.62891 0.0859375 6.71484 0.0859375C8.44141 0.0859375 9.77344 0.636719 10.7109 1.73828C11.6562 2.83984 12.1289 4.39844 12.1289 6.41406V7.5625H3.84375C3.92969 8.60938 4.27734 9.4375 4.88672 10.0469C5.50391 10.6562 6.27734 10.9609 7.20703 10.9609C8.51172 10.9609 9.57422 10.4336 10.3945 9.37891L11.9297 10.8438C11.4219 11.6016 10.7422 12.1914 9.89062 12.6133C9.04688 13.0273 8.09766 13.2344 7.04297 13.2344ZM6.70312 2.37109C5.92188 2.37109 5.28906 2.64453 4.80469 3.19141C4.32812 3.73828 4.02344 4.5 3.89062 5.47656H9.31641V5.26562C9.25391 4.3125 9 3.59375 8.55469 3.10938C8.10938 2.61719 7.49219 2.37109 6.70312 2.37109ZM19.875 6.89453H13.7227V4.59766H19.875V6.89453ZM24.9023 0.320312L24.9844 1.64453C25.875 0.605469 27.0938 0.0859375 28.6406 0.0859375C30.3359 0.0859375 31.4961 0.734375 32.1211 2.03125C33.043 0.734375 34.3398 0.0859375 36.0117 0.0859375C37.4102 0.0859375 38.4492 0.472656 39.1289 1.24609C39.8164 2.01953 40.168 3.16016 40.1836 4.66797V13H37.3359V4.75C37.3359 3.94531 37.1602 3.35547 36.8086 2.98047C36.457 2.60547 35.875 2.41797 35.0625 2.41797C34.4141 2.41797 33.8828 2.59375 33.4688 2.94531C33.0625 3.28906 32.7773 3.74219 32.6133 4.30469L32.625 13H29.7773V4.65625C29.7383 3.16406 28.9766 2.41797 27.4922 2.41797C26.3516 2.41797 25.543 2.88281 25.0664 3.8125V13H22.2188V0.320312H24.9023ZM42.5742 6.54297C42.5742 5.30078 42.8203 4.18359 43.3125 3.19141C43.8047 2.19141 44.4961 1.42578 45.3867 0.894531C46.2773 0.355469 47.3008 0.0859375 48.457 0.0859375C50.168 0.0859375 51.5547 0.636719 52.6172 1.73828C53.6875 2.83984 54.2656 4.30078 54.3516 6.12109L54.3633 6.78906C54.3633 8.03906 54.1211 9.15625 53.6367 10.1406C53.1602 11.125 52.4727 11.8867 51.5742 12.4258C50.6836 12.9648 49.6523 13.2344 48.4805 13.2344C46.6914 13.2344 45.2578 12.6406 44.1797 11.4531C43.1094 10.2578 42.5742 8.66797 42.5742 6.68359V6.54297ZM45.4219 6.78906C45.4219 8.09375 45.6914 9.11719 46.2305 9.85938C46.7695 10.5938 47.5195 10.9609 48.4805 10.9609C49.4414 10.9609 50.1875 10.5859 50.7188 9.83594C51.2578 9.08594 51.5273 7.98828 51.5273 6.54297C51.5273 5.26172 51.25 4.24609 50.6953 3.49609C50.1484 2.74609 49.4023 2.37109 48.457 2.37109C47.5273 2.37109 46.7891 2.74219 46.2422 3.48438C45.6953 4.21875 45.4219 5.32031 45.4219 6.78906ZM59.4141 0.320312L59.4961 1.78516C60.4336 0.652344 61.6641 0.0859375 63.1875 0.0859375C65.8281 0.0859375 67.1719 1.59766 67.2188 4.62109V13H64.3711V4.78516C64.3711 3.98047 64.1953 3.38672 63.8438 3.00391C63.5 2.61328 62.9336 2.41797 62.1445 2.41797C60.9961 2.41797 60.1406 2.9375 59.5781 3.97656V13H56.7305V0.320312H59.4141ZM75.7148 13.2344C73.9102 13.2344 72.4453 12.668 71.3203 11.5352C70.2031 10.3945 69.6445 8.87891 69.6445 6.98828V6.63672C69.6445 5.37109 69.8867 4.24219 70.3711 3.25C70.8633 2.25 71.5508 1.47266 72.4336 0.917969C73.3164 0.363281 74.3008 0.0859375 75.3867 0.0859375C77.1133 0.0859375 78.4453 0.636719 79.3828 1.73828C80.3281 2.83984 80.8008 4.39844 80.8008 6.41406V7.5625H72.5156C72.6016 8.60938 72.9492 9.4375 73.5586 10.0469C74.1758 10.6562 74.9492 10.9609 75.8789 10.9609C77.1836 10.9609 78.2461 10.4336 79.0664 9.37891L80.6016 10.8438C80.0938 11.6016 79.4141 12.1914 78.5625 12.6133C77.7188 13.0273 76.7695 13.2344 75.7148 13.2344ZM75.375 2.37109C74.5938 2.37109 73.9609 2.64453 73.4766 3.19141C73 3.73828 72.6953 4.5 72.5625 5.47656H77.9883V5.26562C77.9258 4.3125 77.6719 3.59375 77.2266 3.10938C76.7812 2.61719 76.1641 2.37109 75.375 2.37109ZM87.293 8.92188L89.8711 0.320312H92.9062L87.8672 14.9219C87.0938 17.0547 85.7812 18.1211 83.9297 18.1211C83.5156 18.1211 83.0586 18.0508 82.5586 17.9102V15.707L83.0977 15.7422C83.8164 15.7422 84.3555 15.6094 84.7148 15.3438C85.082 15.0859 85.3711 14.6484 85.582 14.0312L85.9922 12.9414L81.5391 0.320312H84.6094L87.293 8.92188Z" fill="#4982C1"/>
</svg>
