<svg width="30" height="30" xmlns="http://www.w3.org/2000/svg">

 <g>
  <title>background</title>
  <rect fill="none" id="canvas_background" height="40" width="40" y="-1" x="-1"/>
 </g>
 <g>
  <title>Layer 1</title>
  <path  id="svg_1" fill="none" d="m0,24.591971l21.472549,0l0,23.408029l-21.472549,0l0,-23.408029z"/>
  <path  fill="#afa8a8" id="svg_2" d="m11.931718,0.129041c-6.458076,0 -11.688825,5.307172 -11.688825,11.859603s5.230749,11.859603 11.688825,11.859603s11.688825,-5.307172 11.688825,-11.859603s-5.230749,-11.859603 -11.688825,-11.859603zm5.844412,13.045563l-4.67553,0l0,4.743841l-2.337765,0l0,-4.743841l-4.67553,0l0,-2.371921l4.67553,0l0,-4.743841l2.337765,0l0,4.743841l4.67553,0l0,2.371921z"/>
 </g>
</svg>